HIERARCHY
ROOT Hips
{
	OFFSET	0.00	0.00	0.00
	CHANNELS 6 Xposition Yposition Zposition Zrotation Xrotation Yrotation
	JOINT LeftUpLeg
	{
		OFFSET	 0.126116	-0.014019	-0.065224
		CHANNELS 3 Zrotation Xrotation Yrotation
		JOINT LeftLeg
		{
			OFFSET	 0.000000	 0.000000	 0.569914
			CHANNELS 3 Zrotation Xrotation Yrotation
			JOINT LeftFoot
			{
				OFFSET	 0.000000	 0.000000	 0.544423
				CHANNELS 3 Zrotation Xrotation Yrotation
				JOINT LeftToeBase
				{
					OFFSET	 0.000000	 0.000000	 0.207117
					CHANNELS 3 Zrotation Xrotation Yrotation
					End Site
					{
						OFFSET	 0.000000	 0.000000	 0.207117
					}
				}
			}
		}
	}
	JOINT RightUpLeg
	{
		OFFSET	-0.124023	-0.008373	-0.065224
		CHANNELS 3 Zrotation Xrotation Yrotation
		JOINT RightLeg
		{
			OFFSET	 0.000000	 0.000000	 0.570047
			CHANNELS 3 Zrotation Xrotation Yrotation
			JOINT RightFoot
			{
				OFFSET	 0.000000	 0.000000	 0.544354
				CHANNELS 3 Zrotation Xrotation Yrotation
				JOINT RightToeBase
				{
					OFFSET	 0.000000	 0.000000	 0.207540
					CHANNELS 3 Zrotation Xrotation Yrotation
					End Site
					{
						OFFSET	 0.000000	 0.000000	 0.207540
					}
				}
			}
		}
	}
	JOINT Spine
	{
		OFFSET	 0.000184	-0.007763	 0.117403
		CHANNELS 3 Zrotation Xrotation Yrotation
		JOINT Spine1
		{
			OFFSET	 0.000000	 0.000000	 0.137269
			CHANNELS 3 Zrotation Xrotation Yrotation
			JOINT Spine2
			{
				OFFSET	 0.000000	 0.000000	 0.156879
				CHANNELS 3 Zrotation Xrotation Yrotation
				JOINT LeftShoulder
				{
					OFFSET	 0.080501	-0.002496	 0.160144
					CHANNELS 3 Zrotation Xrotation Yrotation
					JOINT LeftArm
					{
						OFFSET	 0.000000	 0.000000	 0.164363
						CHANNELS 3 Zrotation Xrotation Yrotation
						JOINT LeftForeArm
						{
							OFFSET	 0.000000	 0.000000	 0.364576
							CHANNELS 3 Zrotation Xrotation Yrotation
							JOINT LeftHand
							{
								OFFSET	 0.000000	 0.000000	 0.360812
								CHANNELS 3 Zrotation Xrotation Yrotation
								JOINT LeftHandIndex1
								{
									OFFSET	 0.000000	 0.000000	 0.086006
									CHANNELS 3 Zrotation Xrotation Yrotation
									JOINT LeftHandIndex2
									{
										OFFSET	 0.000000	 0.000000	 0.047236
										CHANNELS 3 Zrotation Xrotation Yrotation
										JOINT LeftHandIndex3
										{
											OFFSET	-0.004284	-0.000551	 0.038166
											CHANNELS 3 Zrotation Xrotation Yrotation
											End Site
											{
												OFFSET	-0.004284	-0.000551	 0.038166
											}
										}
									}
								}
							}
						}
					}
				}
				JOINT Neck
				{
					OFFSET	 0.000000	 0.000000	 0.176489
					CHANNELS 3 Zrotation Xrotation Yrotation
					JOINT Head
					{
						OFFSET	 0.000000	-0.001747	 0.077940
						CHANNELS 3 Zrotation Xrotation Yrotation
						End Site
						{
							OFFSET	 0.000000	-0.001747	 0.077940
						}
					}
				}
				JOINT RightShoulder
				{
					OFFSET	-0.080363	 0.000306	 0.159706
					CHANNELS 3 Zrotation Xrotation Yrotation
					JOINT RightArm
					{
						OFFSET	 0.000000	 0.000000	 0.164196
						CHANNELS 3 Zrotation Xrotation Yrotation
						JOINT RightForeArm
						{
							OFFSET	 0.000000	 0.000000	 0.365611
							CHANNELS 3 Zrotation Xrotation Yrotation
							JOINT RightHand
							{
								OFFSET	 0.000000	 0.000000	 0.360648
								CHANNELS 3 Zrotation Xrotation Yrotation
								JOINT RightHandIndex1
								{
									OFFSET	 0.000000	 0.000000	 0.069977
									CHANNELS 3 Zrotation Xrotation Yrotation
									JOINT RightHandIndex2
									{
										OFFSET	 0.000000	 0.000000	 0.052305
										CHANNELS 3 Zrotation Xrotation Yrotation
										JOINT RightHandIndex3
										{
											OFFSET	 0.009002	-0.000782	 0.042196
											CHANNELS 3 Zrotation Xrotation Yrotation
											End Site
											{
												OFFSET	 0.009002	-0.000782	 0.042196
											}
										}
									}
								}
							}
						}
					}
				}
			}
		}
	}
}
MOTION
Frames:    13
Frame Time: 0.03333334
 0.000294	 0.048381	 1.268370	-0.062698	 2.936755	 0.810718	 21.568730	-9.932445	 176.663100	 2.234903	-17.688050	 0.806125	 0.916429	 72.220880	-1.077336	-2.385833	 28.452750	 0.000004	-14.200370	-8.973192	-177.682400	-0.695574	-15.748410	 1.210231	 5.355319	 71.165820	 0.989177	 2.384659	 28.388700	-0.000001	-5.640973	 7.757781	-0.449877	 1.450392	-6.495562	 0.372104	-3.834717	 10.960000	 0.853017	-91.042430	 68.935550	-177.541700	-6.562259	 0.261393	-26.648840	 21.547560	 0.069834	-2.547342	-7.804579	-11.616120	-4.430882	-2.027600	 6.559038	 9.033609	-5.188889	 0.308190	 3.541030	-5.234859	 0.342567	 0.430617	 4.640411	 20.013390	-7.396444	-8.994190	-14.974480	 1.633738	 88.841170	 67.511390	 177.024000	 9.014669	 10.483320	 16.663700	-23.807590	-3.261907	 13.741740	 4.831110	-11.269100	 5.860926	 1.803333	 3.979147	-15.098590	 4.898592	 3.004813	-9.310344	 5.224449	 0.395017	 2.014677
 0.000211	 0.049609	 1.267324	-0.052940	 3.086664	 0.835594	 21.751800	-10.485260	 176.709300	 2.226796	-18.333690	 0.831998	 1.323363	 72.468320	-1.511367	-2.385833	 28.452750	 0.000004	-14.431160	-9.519272	-177.796500	-0.676953	-16.412830	 1.265199	 5.195405	 71.446850	 1.172682	 2.384659	 28.388700	-0.000001	-6.709118	 7.905284	-0.464315	 1.446483	-6.774940	 0.373123	-3.835563	 11.452140	 0.887503	-91.010640	 68.723340	-177.474700	-6.296122	 0.429599	-27.271860	 20.888850	 0.118546	-2.820101	-7.560647	-11.824400	-4.526863	-2.027600	 6.559038	 9.033609	-5.188889	 0.308190	 3.541030	-5.234859	 0.342567	 0.430617	 4.692547	 20.595140	-7.578247	-8.963380	-15.363470	 1.606041	 88.792960	 67.184620	 176.935900	 8.711805	 10.831330	 17.191670	-23.296370	-3.046714	 13.818890	 4.547418	-11.348610	 5.777963	 1.803333	 3.979147	-15.098590	 4.898592	 3.004813	-9.310344	 5.224449	 0.395017	 2.014677
-0.000471	 0.057418	 1.261212	 0.032072	 4.051298	 0.977249	 22.678740	-13.712700	 177.040400	 2.249362	-21.869540	 1.011658	 4.088428	 73.829640	-4.549268	-2.385833	 28.452750	 0.000004	-15.738870	-12.625210	-178.524200	-0.583393	-19.904700	 1.556374	 3.761631	 72.877850	 2.817110	 2.384659	 28.388700	-0.000001	-12.182710	 8.645989	-0.531650	 1.466888	-7.782901	 0.338738	-3.970558	 13.583590	 1.089665	-90.883040	 67.833280	-177.227200	-5.006536	 1.827869	-30.753720	 17.304570	 0.469846	-4.251765	-6.577543	-13.193320	-5.236476	-2.027600	 6.559038	 9.033609	-5.188889	 0.308190	 3.541030	-5.234859	 0.342567	 0.430617	 4.734570	 23.316300	-8.363098	-8.706710	-17.338450	 1.473290	 88.547230	 65.464290	 176.530800	 6.792857	 12.980550	 20.432020	-20.382590	-1.709078	 13.615590	 3.133252	-11.943370	 5.468104	 1.803333	 3.979147	-15.098590	 4.898592	 3.004813	-9.310344	 5.224449	 0.395017	 2.014677
-0.001406	 0.068814	 1.253999	 0.146939	 5.453814	 1.152056	 23.898460	-17.837160	 177.682700	 2.369738	-25.925570	 1.218949	 8.892124	 75.218020	-9.786480	-2.385832	 28.452790	-0.000001	-17.451180	-16.371240	-179.602200	-0.747467	-23.439130	 1.752631	 0.981970	 74.205620	 6.243720	 2.384659	 28.388700	-0.000001	-18.144220	 9.505652	-0.641824	 1.540274	-7.850116	 0.255114	-4.210454	 15.323770	 1.287662	-90.829380	 66.496730	-177.285500	-3.616439	 2.692568	-34.839070	 12.316160	 1.074430	-5.887729	-6.274010	-14.626000	-6.463305	-2.027600	 6.559038	 9.033609	-5.188889	 0.308190	 3.541030	-5.234859	 0.342567	 0.430617	 4.519592	 25.537190	-8.781074	-8.436661	-18.986140	 1.219610	 88.403490	 63.297560	 176.497000	 4.155440	 14.489860	 22.894250	-16.444770	-0.624025	 16.495710	 1.618749	-12.448490	 5.532023	 1.803333	 3.979147	-15.098590	 4.898592	 3.004813	-9.310344	 5.224449	 0.395017	 2.014677
-0.002134	 0.082451	 1.247486	 0.332455	 7.202173	 1.279580	 25.069250	-21.945890	 178.716500	 2.389501	-29.055570	 1.363608	 15.147860	 75.774930	-16.611970	-2.385832	 28.452790	-0.000001	-19.310600	-20.206700	 179.070000	-1.023142	-26.168250	 1.820872	-3.318141	 74.926520	 11.445450	 2.384659	 28.388700	-0.000001	-23.348700	 10.240910	-0.762194	 1.658106	-7.375543	 0.139583	-4.500251	 16.428730	 1.494769	-91.053700	 65.304680	-178.052300	-2.434859	 3.405947	-38.304120	 7.268756	 1.849197	-7.405260	-6.600348	-15.637010	-7.907447	-2.027600	 6.559038	 9.033609	-5.188889	 0.308190	 3.541030	-5.234859	 0.342567	 0.430617	 4.086565	 26.695300	-8.807932	-8.187344	-19.949150	 0.946243	 88.579090	 61.563990	 177.141100	 1.276702	 15.611630	 24.574550	-12.558800	 0.722261	 20.112770	 0.280505	-12.800140	 5.861747	 1.803333	 3.979147	-15.098590	 4.898592	 3.004813	-9.310344	 5.224449	 0.395017	 2.014677
-0.002865	 0.097269	 1.240830	 0.624682	 9.192690	 1.320800	 26.163360	-26.028460	-179.915500	 2.361028	-31.741190	 1.462070	 22.032090	 75.744440	-24.164850	-2.385833	 28.452760	 0.000004	-21.202220	-24.194530	 177.592500	-1.147211	-28.757320	 1.926351	-8.691287	 75.427630	 17.711920	 2.384659	 28.388700	-0.000001	-27.556830	 10.813150	-0.875649	 1.782109	-6.757340	 0.040848	-4.761533	 17.024230	 1.732221	-91.663180	 64.755550	-179.703100	-1.613346	 4.389459	-40.311550	 3.157960	 2.714841	-8.739265	-7.003651	-16.142660	-9.274014	-2.027600	 6.559038	 9.033609	-5.188889	 0.308190	 3.541030	-5.234859	 0.342567	 0.430617	 3.611022	 26.967540	-8.734299	-7.924785	-20.382820	 0.754623	 89.145300	 60.820840	 178.525300	-1.631984	 17.194590	 25.256070	-9.331561	 2.284660	 24.109160	-0.866543	-13.119680	 6.171043	 1.803333	 3.979147	-15.098590	 4.898592	 3.004813	-9.310344	 5.224449	 0.395017	 2.014677
-0.004267	 0.113248	 1.233442	 0.844723	 11.490170	 1.271811	 27.444370	-30.180840	-178.215000	 2.445168	-34.261540	 1.611981	 30.010030	 75.548020	-33.054470	-2.385832	 28.452790	-0.000001	-22.986960	-28.520350	 175.974500	-1.260976	-31.648960	 2.040936	-16.084660	 76.119560	 26.199510	 2.384659	 28.388700	-0.000001	-30.933140	 11.422510	-0.867655	 1.904224	-5.780910	-0.173824	-4.906161	 17.151820	 2.218192	-92.468330	 65.060420	 178.155700	-1.516243	 5.660693	-41.306230	 0.506508	 3.682887	-9.959194	-6.833861	-16.464940	-9.917734	-2.027600	 6.559038	 9.033609	-5.188889	 0.308190	 3.541030	-5.234859	 0.342567	 0.430617	 3.185157	 25.518540	-8.986627	-7.614044	-19.800640	 0.531913	 89.941560	 60.357510	-179.636300	-4.495093	 18.913030	 25.625200	-6.000463	 4.402486	 28.945330	-1.153820	-13.688370	 6.466813	 1.803333	 3.979147	-15.098590	 4.898592	 3.004813	-9.310344	 5.224449	 0.395017	 2.014677
-0.007574	 0.133034	 1.226974	 1.826024	 15.380470	 1.309888	 28.108070	-35.719200	-175.830800	 3.182546	-36.102410	 2.122517	 37.168650	 74.098280	-42.055190	-2.385833	 28.452760	 0.000004	-26.110790	-33.857490	 173.073600	-0.829652	-34.107770	 2.423695	-26.613200	 75.856810	 37.782210	 2.384659	 28.388700	-0.000001	-33.621410	 11.482160	-0.901009	 1.638908	-4.417067	-0.442923	-5.106757	 16.243760	 2.189282	-93.293300	 65.263340	 175.919400	-1.329805	 6.031712	-41.672040	-2.245945	 4.817697	-11.138070	-6.539001	-16.295720	-10.448840	-2.027600	 6.559038	 9.033609	-5.188889	 0.308190	 3.541030	-5.234859	 0.342567	 0.430617	 2.786809	 24.611920	-8.645696	-7.358647	-19.674250	 0.181026	 90.865940	 60.479060	-177.518400	-7.572330	 20.432750	 25.990590	-3.135752	 7.263898	 35.396970	-1.328616	-13.881490	 7.002105	 1.803333	 3.979147	-15.098590	 4.898592	 3.004813	-9.310344	 5.224449	 0.395017	 2.014677
-0.011639	 0.153593	 1.221168	 3.038966	 19.152510	 1.208321	 28.390630	-41.077290	-173.343200	 4.018449	-37.442220	 2.699704	 39.059190	 71.494550	-46.031110	-2.385833	 28.452760	 0.000004	-29.530740	-38.835540	 169.750100	-0.859324	-36.032080	 2.524829	-33.915060	 74.419270	 46.659580	 2.384659	 28.388700	-0.000001	-34.874020	 11.359940	-0.977146	 1.250463	-3.022070	-0.724830	-5.310153	 15.093000	 1.897829	-93.919080	 65.641700	 174.130000	-1.395719	 6.117938	-42.049680	-4.487908	 5.866327	-12.052460	-6.391562	-16.164930	-10.880800	-2.027600	 6.559038	 9.033609	-5.188889	 0.308190	 3.541030	-5.234859	 0.342567	 0.430617	 2.458539	 24.081270	-7.782697	-7.248718	-19.809620	-0.392887	 91.652660	 61.004330	-175.642200	-9.679739	 21.544840	 27.344650	-1.312325	 9.888557	 39.705120	-1.337439	-13.805910	 7.504788	 1.803333	 3.979147	-15.098590	 4.898592	 3.004813	-9.310344	 5.224449	 0.395017	 2.014677
-0.018605	 0.186282	 1.215779	 4.390018	 23.123140	 0.904570	 26.655740	-47.341390	-171.118300	 4.535085	-37.526670	 3.020916	 40.475910	 68.620060	-49.407150	-2.385833	 28.452750	 0.000004	-31.485540	-44.932050	 166.078400	-1.301613	-37.018490	 2.316985	-38.114040	 71.890430	 53.016400	 2.384659	 28.388700	-0.000001	-33.706910	 11.790840	-1.162031	 1.024629	 0.286680	-1.395970	-5.408744	 13.798700	 1.605150	-94.528040	 67.660410	 171.562400	-2.560318	 6.662640	-44.072110	-7.479752	 7.572528	-13.278130	-6.408055	-16.560000	-11.492770	-2.027600	 6.559038	 9.033609	-5.188889	 0.308190	 3.541030	-5.234859	 0.342567	 0.430617	 1.719550	 22.977480	-6.272755	-7.007732	-20.151200	-1.418813	 92.638380	 62.270660	-173.038800	-10.572650	 22.878050	 30.254090	 0.497169	 14.137630	 45.923220	 0.019070	-14.122230	 8.704125	 1.803333	 3.979147	-15.098590	 4.898592	 3.004813	-9.310344	 5.224449	 0.395017	 2.014677
-0.019404	 0.189714	 1.214794	 4.470374	 23.379340	 0.875127	 26.514850	-47.901140	-170.957700	 4.538469	-37.605360	 3.028382	 40.413070	 68.341730	-49.493520	-2.385833	 28.452750	 0.000004	-31.582350	-45.510100	 165.774600	-1.305663	-37.187950	 2.323595	-38.193270	 71.612330	 53.287460	 2.384659	 28.388700	-0.000001	-33.312420	 11.895500	-1.179760	 1.042048	 0.713495	-1.498178	-5.398596	 13.715230	 1.607185	-94.562820	 67.972470	 171.283700	-2.766926	 6.711417	-44.311700	-7.747735	 7.750417	-13.391950	-6.413796	-16.635370	-11.550700	-2.027600	 6.559038	 9.033609	-5.188889	 0.308190	 3.541030	-5.234859	 0.342567	 0.430617	 1.621602	 22.826090	-6.144465	-6.963398	-20.186920	-1.511457	 92.725660	 62.416580	-172.786500	-10.457590	 22.961160	 30.473900	 0.613062	 14.608890	 46.653580	 0.267811	-14.210990	 8.872297	 1.803333	 3.979147	-15.098590	 4.898592	 3.004813	-9.310344	 5.224449	 0.395017	 2.014677
-0.022295	 0.207317	 1.208582	 3.965167	 24.920730	 0.688428	 27.157020	-50.768110	-169.417400	 4.566439	-38.164380	 3.083889	 40.954210	 67.003980	-50.778170	-2.385833	 28.452750	 0.000004	-30.586100	-48.997080	 164.838000	-1.853747	-38.008610	 2.028860	-37.808380	 70.099250	 54.427580	 2.384659	 28.388700	-0.000001	-30.510430	 12.482150	-1.193761	 1.392650	 2.452649	-1.633882	-5.090663	 13.317440	 1.858847	-94.508990	 70.036850	 170.022600	-3.854021	 7.390165	-45.714420	-9.505331	 8.589085	-13.881460	-7.285092	-17.823310	-11.961850	-2.027600	 6.559038	 9.033609	-5.188889	 0.308190	 3.541030	-5.234859	 0.342567	 0.430617	 1.162132	 21.691320	-5.988328	-6.611917	-20.119830	-1.633854	 93.032340	 64.002880	-171.497500	-10.291170	 24.260260	 32.598660	 1.670236	 16.829330	 48.658680	 2.316388	-15.214600	 9.965890	 1.803333	 3.979147	-15.098590	 4.898592	 3.004813	-9.310344	 5.224449	 0.395017	 2.014677
-0.024409	 0.220633	 1.202487	 3.842314	 26.462310	 0.029066	 28.012440	-52.995620	-167.430000	 4.873276	-38.420930	 3.293012	 41.523370	 66.019420	-52.094330	-2.385833	 28.452750	 0.000004	-29.328420	-52.143590	 164.841700	-3.013560	-38.610450	 1.331240	-36.066650	 68.667730	 54.607280	 2.384659	 28.388700	-0.000001	-26.454060	 12.973510	-1.371812	 1.719942	 4.416072	-1.485380	-4.958123	 12.902710	 1.773375	-94.814650	 70.179670	 168.774100	-5.326465	 6.701119	-46.961240	-11.109940	 9.322378	-14.268290	-8.200633	-18.808420	-12.350450	-2.027600	 6.559038	 9.033609	-5.188889	 0.308190	 3.541030	-5.234859	 0.342567	 0.430617	 0.455435	 22.079710	-4.853355	-6.486660	-21.335290	-2.656703	 93.380950	 64.945300	-170.167700	-9.800178	 24.277050	 34.752550	 3.174646	 18.578770	 48.594420	 4.132005	-15.811580	 11.002160	 1.803333	 3.979147	-15.098590	 4.898592	 3.004813	-9.310344	 5.224449	 0.395017	 2.014677
